# xmcd CD database file
#
# Track frame offsets:
#	163
#	11135
#	24845
#	37175
#	49638
#	59854
#	69858
#	84462
#	98183
#	111488
#	122989
#	135713
#	148257
#	168691
#	179628
#	189670
#	205180
#	218434
#	231264
#	247233
#	261997
#	275565
#	291548
#	302246
#
# Disc length: 4247 seconds
#
# Revision: 0
# Processed by: cddbd v1.5.2PL0 Copyright (c) Steve Scherf et al.
# Submitted via: CDex 1.70beta2
#
DISCID=87109518
DTITLE=Billie Jo Spears - The Ultimate Collection Disc 2
DYEAR=2007
DGENRE=Country
TTITLE0=He's Got More Love In His Little Finger 1968
TTITLE1=Mr. Walker, It's All Over 1969
TTITLE2=Daddy I Love You 1969
TTITLE3=Marty Gray 1970
TTITLE4=I Stayed Long Enough 1970
TTITLE5=Souvenirs And California Memories 1971
TTITLE6=Harper Valley P.T.A 1868
TTITLE7=Heartaches By The Number 2003
TTITLE8=Tips an Tables 1969
TTITLE9=Stand By Your Man 1969
TTITLE10=Faded Love 1970
TTITLE11=I Don't Wanna Play House 1968
TTITLE12=Ode To Billie Jo 1968
TTITLE13=Paper Roses 2003
TTITLE14=Snowbird 1970
TTITLE15=Sweet Music Man xxxx
TTITLE16=She's Out There Dancing Alone 1977
TTITLE17=We Love Each Other 1975
TTITLE18=Lizzie And The Rain Man 1975
TTITLE19=Hurt 1975
TTITLE20=Permanently Lonely 1975
TTITLE21=I've Have Never Loved Anyone More 1975
TTITLE22=Callin' Baton Rouge 1980
TTITLE23=Slow Movin' Outlaw 1978
EXTD=YEAR: 2007
EXTT0=
EXTT1=
EXTT2=
EXTT3=
EXTT4=
EXTT5=
EXTT6=
EXTT7=
EXTT8=
EXTT9=
EXTT10=
EXTT11=
EXTT12=
EXTT13=
EXTT14=
EXTT15=
EXTT16=
EXTT17=
EXTT18=
EXTT19=
EXTT20=
EXTT21=
EXTT22=
EXTT23=
PLAYORDER=
